<?xml version="1.0" encoding="UTF-8"?>
<svg version="1.1" xmlns="http://www.w3.org/2000/svg" width="453" height="185">
<path d="M0 0 C10.27231322 5.99449006 16.55529868 14.69897721 23.15527344 24.28515625 C32.1132265 37.75969879 32.1132265 37.75969879 45.625 45.625 C49.30414238 46.1671894 52.9892358 46.59005844 56.68359375 47.015625 C72.15387862 49.4074629 84.33987362 57.57311873 96.07421875 67.36645508 C107.97456464 77.17616202 121.06150297 85.53838934 134.66650391 92.77783203 C139.03080273 95.11526548 143.21729946 97.61369036 147.3671875 100.31640625 C161.75555902 110.05568686 161.75555902 110.05568686 178.625 111.625 C178.625 112.615 178.625 113.605 178.625 114.625 C110.315 114.625 42.005 114.625 -28.375 114.625 C-28.375 113.635 -28.375 112.645 -28.375 111.625 C3.305 111.625 34.985 111.625 67.625 111.625 C62.675 110.965 57.725 110.305 52.625 109.625 C51.965 109.295 51.305 108.965 50.625 108.625 C48.11801981 108.46812721 45.63462975 108.3665338 43.125 108.30859375 C41.99952759 108.2774221 41.99952759 108.2774221 40.85131836 108.24562073 C39.25754504 108.20232559 37.66370908 108.16128749 36.06982422 108.12231445 C33.66228737 108.06341226 31.25499246 107.99819494 28.84765625 107.93164062 C21.10483388 107.72363982 13.37128173 107.57033874 5.625 107.625 C5.295 106.635 4.965 105.645 4.625 104.625 C17.825 104.295 31.025 103.965 44.625 103.625 C41.28146457 100.28146457 40.19276946 100.26448726 35.66714478 100.1882782 C34.44902603 100.19043083 34.44902603 100.19043083 33.20629883 100.19262695 C32.34754654 100.1824353 31.48879425 100.17224365 30.60401917 100.16174316 C27.76329088 100.13152973 24.92289933 100.12233452 22.08203125 100.11328125 C20.11332572 100.09644075 18.14463099 100.07829137 16.1759491 100.05888367 C10.99251681 100.01130927 5.80912827 99.98154805 0.62554932 99.95544434 C-4.66313317 99.92567632 -9.95166478 99.87913312 -15.24023438 99.83398438 C-25.61841078 99.74786663 -35.99661817 99.68055904 -46.375 99.625 C-46.375 98.635 -46.375 97.645 -46.375 96.625 C-18.655 96.625 9.065 96.625 37.625 96.625 C36.01827932 93.45596637 36.01827932 93.45596637 33.56201172 93.19262695 C32.32088623 93.15335083 32.32088623 93.15335083 31.0546875 93.11328125 C29.71083984 93.06010742 29.71083984 93.06010742 28.33984375 93.00585938 C26.93412109 92.97202148 26.93412109 92.97202148 25.5 92.9375 C24.55511719 92.90333984 23.61023438 92.86917969 22.63671875 92.83398438 C20.29959747 92.75135888 17.96285809 92.68226012 15.625 92.625 C15.625 91.635 15.625 90.645 15.625 89.625 C24.04 89.13 24.04 89.13 32.625 88.625 C19.47752301 70.48862688 19.47752301 70.48862688 -0.375 61.625 C-17.62455949 60.84184189 -34.18850527 73.28312357 -47.02734375 83.72265625 C-79.53944634 110.06773772 -79.53944634 110.06773772 -93.375 109.625 C-95.90617563 108.74882382 -98.01243941 107.83131706 -100.375 106.625 C-110.57383836 101.62207638 -119.04835653 99.56953202 -130.0625 103.3125 C-135.06360961 105.34056625 -139.75608756 107.84224782 -144.375 110.625 C-143.31539063 110.61339844 -142.25578125 110.60179688 -141.1640625 110.58984375 C-139.77604342 110.58046524 -138.38802245 110.57136511 -137 110.5625 C-136.30132812 110.55412109 -135.60265625 110.54574219 -134.8828125 110.53710938 C-129.6015625 110.51171875 -129.6015625 110.51171875 -127.375 111.625 C-127.375 112.615 -127.375 113.605 -127.375 114.625 C-163.345 114.625 -199.315 114.625 -236.375 114.625 C-236.375 113.635 -236.375 112.645 -236.375 111.625 C-235.80575302 111.62500504 -235.23650604 111.62501007 -234.65000916 111.62501526 C-227.91424242 111.30543909 -224.92508633 109.26702833 -220.44140625 104.40234375 C-219.83739487 103.78226944 -219.23338348 103.16219513 -218.61106873 102.52333069 C-216.699919 100.55452504 -214.81823281 98.56034186 -212.9375 96.5625 C-211.02669654 94.56670792 -209.11025838 92.57663676 -207.18894958 90.59095764 C-205.99857072 89.35712733 -204.81526961 88.11642211 -203.63978577 86.86839294 C-202.25597351 85.41694332 -200.82001693 84.01552811 -199.375 82.625 C-198.715 82.625 -198.055 82.625 -197.375 82.625 C-197.375 81.965 -197.375 81.305 -197.375 80.625 C-195.87109375 79.14453125 -195.87109375 79.14453125 -193.8125 77.4375 C-191.10017387 75.13771298 -188.52533357 72.81445535 -186.0625 70.25 C-181.50476522 65.63067421 -176.43785739 61.67142604 -171.375 57.625 C-170.27632793 56.71346256 -169.17870128 55.80066387 -168.08203125 54.88671875 C-162.16018075 50.01263221 -156.21212397 45.68595892 -149.4375 42.0625 C-148.83518555 41.74015381 -148.23287109 41.41780762 -147.61230469 41.08569336 C-138.95795845 36.66153601 -129.95109487 34.92850744 -120.4375 37.3828125 C-115.49361872 39.12690395 -110.8852568 41.23449752 -106.421875 43.98828125 C-100.38072637 45.86749351 -94.47821122 42.58180989 -89.20068359 39.8972168 C-78.82012266 34.40628393 -69.53128327 27.03062784 -60.19750977 19.95996094 C-21.02901847 -9.70780436 -21.02901847 -9.70780436 0 0 Z M-61.43115234 24.57250977 C-67.19680688 29.01439023 -73.02973336 33.30227321 -79.0625 37.375 C-79.75585449 37.85179199 -80.44920898 38.32858398 -81.16357422 38.81982422 C-89.44508415 44.32030419 -98.27054247 48.43045112 -108.375 46.625 C-110.62712006 45.5542552 -112.53582279 44.31333914 -114.56640625 42.87109375 C-120.80789483 38.57080248 -129.12250875 38.81824352 -136.375 39.625 C-140.63147935 40.85242536 -144.45033246 42.58395575 -148.375 44.625 C-149.19355469 45.0478125 -150.01210937 45.470625 -150.85546875 45.90625 C-163.13347003 52.79635186 -173.65086669 62.54324297 -183.81884766 72.16601562 C-185.26228477 73.51932284 -186.7298339 74.84678659 -188.19921875 76.171875 C-196.27992107 83.46500554 -203.98413595 91.12545321 -211.6875 98.8125 C-212.26359009 99.38600189 -212.83968018 99.95950378 -213.43322754 100.55038452 C-215.0795193 102.19083732 -216.7220625 103.83494226 -218.36328125 105.48046875 C-218.86888077 105.98408936 -219.37448029 106.48770996 -219.895401 107.0065918 C-222.31557496 108.97670673 -222.31557496 108.97670673 -223.375 111.625 C-219.39799458 112.20051315 -215.87554294 112.53612367 -212.3444519 110.39205933 C-210.29675306 108.56956874 -208.42456253 106.66060488 -206.55859375 104.65234375 C-205.85783218 103.93647598 -205.15707062 103.22060822 -204.43507385 102.48304749 C-202.20534574 100.19654544 -200.00870033 97.88118027 -197.8125 95.5625 C-195.60618274 93.27596181 -193.39349081 90.99576319 -191.17921448 88.7169342 C-189.80727996 87.30037976 -188.44109103 85.87822825 -187.08189392 84.44944763 C-182.73041002 79.89712441 -178.17601369 75.69853254 -173.375 71.625 C-172.75594788 71.09500397 -172.13689575 70.56500793 -171.49908447 70.01895142 C-158.57550292 58.98881128 -142.81264539 46.68062707 -124.94921875 47.26953125 C-118.57120142 48.15025898 -112.80087952 50.7765825 -107.25 53.9375 C-102.73036081 56.23391587 -99.18694441 56.04117351 -94.375 54.625 C-83.01856939 50.12708788 -73.33334771 42.64273761 -63.67773438 35.32128906 C-25.04697032 6.03545468 -25.04697032 6.03545468 -4.375 8.625 C8.99468945 12.5445034 17.14437068 23.42625116 24.5390625 34.51171875 C30.67556767 43.67051017 37.22979525 52.1990662 47.625 56.625 C50.96381709 57.19165796 50.96381709 57.19165796 54.5 57.4375 C71.44792164 59.27938893 84.80191058 67.4599373 97.68359375 78.234375 C106.43205211 85.34467582 115.80788737 91.68371148 125.52490234 97.38964844 C127.11759862 98.3265286 128.70565792 99.27129715 130.29150391 100.21972656 C133.30903756 102.01874663 136.34027105 103.79266243 139.375 105.5625 C140.3455835 106.14298096 141.31616699 106.72346191 142.31616211 107.3215332 C148.25468317 110.73883552 152.75452721 112.40587998 159.625 112.625 C159.625 111.965 159.625 111.305 159.625 110.625 C158.07978947 109.41361338 158.07978947 109.41361338 156.0234375 108.26171875 C155.23388672 107.7934668 154.44433594 107.32521484 153.63085938 106.84277344 C152.76267578 106.3377832 151.89449219 105.83279297 151 105.3125 C150.10861328 104.7855957 149.21722656 104.25869141 148.29882812 103.71582031 C145.41197625 102.01123171 142.51915024 100.3171636 139.625 98.625 C107.97691874 80.08493228 107.97691874 80.08493228 94.3046875 68.69140625 C81.12575704 57.82196682 68.52185585 50.84042164 51.57568359 48.83862305 C43.15261244 47.74378033 35.55380914 44.51134569 30.10839844 37.73876953 C28.36936639 35.41267243 26.68081614 33.05597554 25 30.6875 C11.43873485 10.43265999 11.43873485 10.43265999 -9.375 -0.375 C-28.689513 -3.21194054 -47.34699823 13.68556893 -61.43115234 24.57250977 Z M-65.359375 38.62109375 C-92.01884436 58.61398727 -92.01884436 58.61398727 -106.375 56.625 C-109.59340017 55.27437653 -112.43201846 53.48772046 -115.375 51.625 C-122.7052506 48.20421639 -131.32616308 48.642089 -138.875 51.1875 C-154.49517989 57.62328227 -167.27717019 68.47545384 -179.4609375 79.921875 C-181.62236273 81.92684318 -183.80235163 83.85682531 -186.0390625 85.7734375 C-190.88546879 89.99409363 -195.41809891 94.51728952 -199.95068359 99.0703125 C-201.39695675 100.52203955 -202.84862318 101.9682245 -204.30078125 103.4140625 C-205.66783203 104.78304687 -205.66783203 104.78304687 -207.0625 106.1796875 C-207.89136719 107.00968262 -208.72023438 107.83967773 -209.57421875 108.69482422 C-211.48869554 110.30690324 -211.48869554 110.30690324 -211.375 111.625 C-206.11565655 112.30410666 -206.11565655 112.30410666 -201.35986328 110.36376953 C-199.28671758 108.55229812 -197.35605131 106.66194961 -195.4375 104.6875 C-194.73729736 103.99962402 -194.03709473 103.31174805 -193.31567383 102.60302734 C-191.31473945 100.62971287 -189.34065386 98.63338547 -187.375 96.625 C-185.77106375 94.99977257 -184.16694871 93.37472153 -182.5625 91.75 C-181.88316406 91.06164062 -181.20382813 90.37328125 -180.50390625 89.6640625 C-177.22951123 86.52785296 -173.72666985 83.70452172 -170.18359375 80.87890625 C-168.33752056 79.3974261 -166.51590883 77.88484045 -164.72265625 76.33984375 C-152.91518054 66.23153488 -139.34888912 57.67090198 -123.375 57.625 C-117.68559495 58.07313807 -113.27024177 60.11203445 -108.25 62.75 C-102.46753786 65.71405805 -99.0629858 66.80753132 -92.70703125 64.76953125 C-80.21293763 60.03373638 -69.95243016 51.6293918 -59.40234375 43.65234375 C-53.48017304 39.18479113 -47.46447962 34.86115973 -41.375 30.625 C-40.43140625 29.965 -39.4878125 29.305 -38.515625 28.625 C-27.73648661 21.39736964 -16.57130281 16.48060079 -3.375 18.625 C11.05137636 23.8178276 18.51812206 34.31906629 27.1875 46.25 C37.55797372 60.82262147 37.55797372 60.82262147 53.625 67.625 C54.59695313 67.75261719 55.56890625 67.88023438 56.5703125 68.01171875 C73.65265701 70.25506279 86.0927812 77.90982415 99.29931641 88.43383789 C105.21030854 93.13229824 111.30127388 97.49689346 117.625 101.625 C118.63747803 102.29789063 118.63747803 102.29789063 119.67041016 102.984375 C131.59845809 111.0685555 131.59845809 111.0685555 145.625 111.625 C142.83924956 109.4621107 140.00193629 107.60367004 136.94921875 105.83984375 C136.0463916 105.31455078 135.14356445 104.78925781 134.21337891 104.24804688 C133.25608887 103.69181641 132.29879883 103.13558594 131.3125 102.5625 C119.08702765 95.3783157 107.45845275 88.09254757 96.5625 79 C89.64565502 73.23680031 82.68203559 68.66853091 74.625 64.625 C73.82449219 64.20734375 73.02398437 63.7896875 72.19921875 63.359375 C65.94844437 60.46609774 59.36084945 59.6400817 52.57543945 58.83862305 C41.05265321 57.34072032 34.6207538 51.70167257 27.625 42.625 C25.18825993 39.22474005 22.85833658 35.75417007 20.53564453 32.27539062 C17.3239791 27.50561325 13.93931441 23.44659327 9.625 19.625 C9.00625 18.92375 8.3875 18.2225 7.75 17.5 C1.85900992 12.30206758 -5.02502617 9.18436405 -12.9296875 9.359375 C-32.83470274 11.52158113 -49.95704346 27.02309184 -65.359375 38.62109375 Z M-59.01245117 45.74780273 C-64.17056084 49.76328935 -69.4497833 53.54097814 -74.875 57.1875 C-75.59244385 57.67605469 -76.3098877 58.16460937 -77.04907227 58.66796875 C-85.17872885 64.06325005 -93.40478905 68.37250262 -103.375 67.625 C-105.92351401 66.56749094 -108.17526696 65.51779017 -110.5625 64.1875 C-117.94173297 60.20192497 -124.12943355 58.29471689 -132.5390625 60.0859375 C-134.88446428 60.81087987 -137.11217492 61.67242364 -139.375 62.625 C-140.25671875 62.99238281 -141.1384375 63.35976562 -142.046875 63.73828125 C-155.96203679 70.11292969 -167.60363928 80.38637585 -178.56054688 90.89599609 C-180.65495468 92.89177059 -182.77160858 94.86240992 -184.890625 96.83203125 C-186.44809639 98.28366136 -188.00538959 99.73548269 -189.5625 101.1875 C-190.3062085 101.87875977 -191.04991699 102.57001953 -191.81616211 103.28222656 C-192.5097583 103.93288086 -193.20335449 104.58353516 -193.91796875 105.25390625 C-194.53696045 105.83213135 -195.15595215 106.41035645 -195.79370117 107.00610352 C-197.58567939 108.74105418 -197.58567939 108.74105418 -199.375 111.625 C-195.5124316 112.13116354 -191.91080523 112.57978687 -188.49707031 110.45751953 C-186.71634172 108.78102112 -185.10398375 107.03372763 -183.5 105.1875 C-182.29305623 103.89080244 -181.08208636 102.59784104 -179.8671875 101.30859375 C-179.27776367 100.67550293 -178.68833984 100.04241211 -178.08105469 99.39013672 C-174.20670858 95.38161892 -169.75541988 92.05344413 -165.375 88.625 C-164.56804687 87.95082031 -163.76109375 87.27664062 -162.9296875 86.58203125 C-150.07931706 75.90093556 -137.23417978 67.5113773 -120.15234375 68.234375 C-114.35970517 68.83340691 -110.27726746 70.81324656 -105.41015625 73.8515625 C-101.57075307 76.0867794 -99.01888364 76.95289963 -94.5625 76.25 C-80.06585151 72.4003589 -66.85681833 61.30944971 -55.3125 52.0625 C-40.31362556 40.09277661 -23.37203939 27.27856593 -3.375 28.625 C11.77485202 31.40955224 20.85294605 45.00009598 29.1875 56.75 C38.04657665 69.9147761 38.04657665 69.9147761 51.67797852 77.0612793 C54.01081686 77.41364173 56.3458517 77.71221536 58.6875 78 C75.73609497 80.42710235 88.39267376 87.91530094 101.625 98.625 C104.17264535 100.67803316 106.72214081 102.72789294 109.28515625 104.76171875 C110.70387499 105.89148309 112.11118089 107.03607152 113.49609375 108.20703125 C117.97200319 111.79396099 121.93927431 112.48317918 127.625 112.625 C127.955 111.965 128.285 111.305 128.625 110.625 C128.14780518 110.34938232 127.67061035 110.07376465 127.17895508 109.78979492 C117.60302354 104.21523067 108.81019873 98.44667959 100.49609375 91.12109375 C88.86271058 81.00717287 74.33952348 71.59215354 58.80639648 69.97216797 C47.09015768 68.74371108 39.72257588 65.84860025 31.984375 56.7109375 C28.68640874 52.39737236 25.59959564 47.95212425 22.60571289 43.42260742 C18.18107759 36.7579229 13.64200225 30.98272991 7.0625 26.3125 C6.15371094 25.65636719 5.24492187 25.00023437 4.30859375 24.32421875 C-17.19864085 10.70610077 -42.57504633 32.89223973 -59.01245117 45.74780273 Z M-53.50683594 53.16064453 C-85.35117633 78.12174668 -85.35117633 78.12174668 -99.828125 78.05078125 C-102.93550055 77.53129669 -104.98355355 76.35595664 -107.6875 74.75 C-115.32387196 70.27240585 -122.57678924 68.723403 -131.3125 70.5625 C-151.29158421 76.50927702 -168.81090004 92.37000755 -182.95703125 107.234375 C-184.375 108.625 -184.375 108.625 -186.375 109.625 C-186.375 110.285 -186.375 110.945 -186.375 111.625 C-182.12201394 112.33383101 -179.69467304 112.56697351 -176.109375 110.0078125 C-174.45612879 108.46952712 -172.82357372 106.90884303 -171.20703125 105.33203125 C-157.60193831 92.32743897 -139.69741848 78.1362267 -120.12109375 78.33984375 C-114.37895416 78.93611145 -109.10199514 81.27915289 -103.9609375 83.81640625 C-98.84871884 86.33738006 -94.97221681 87.46436807 -89.375 85.625 C-76.73131948 80.48736613 -66.13017051 72.04627615 -55.5 63.6875 C-21.02979361 36.65523918 -21.02979361 36.65523918 -2.375 38.625 C11.96921459 41.76544935 20.59260582 52.06366794 28.625 63.625 C31.26650654 67.31048431 33.92933141 70.97893543 36.625 74.625 C37.12515625 75.30691406 37.6253125 75.98882812 38.140625 76.69140625 C44.44578589 84.71143233 52.39050752 87.16577085 62.1875 88.4375 C78.46235434 90.99031114 91.79512459 98.39893777 103.875 109.625 C107.32282593 112.13250977 109.45663735 112.04183627 113.625 111.625 C99.2914215 96.95688556 80.04523438 82.41646327 59.15356445 79.6887207 C46.34562867 77.97235847 39.78005124 73.5743155 31.625 63.625 C29.43281267 60.69172711 27.34313873 57.69188275 25.25 54.6875 C17.68137066 44.08904258 10.47315146 34.8338772 -2.375 30.625 C-21.51872011 27.43437998 -39.35146115 41.98171545 -53.50683594 53.16064453 Z M-56.44140625 67.05859375 C-62.3354704 71.71175438 -68.33823179 76.04569161 -74.6875 80.0625 C-75.33299805 80.47556396 -75.97849609 80.88862793 -76.64355469 81.31420898 C-84.40547013 86.1241722 -92.11287999 89.26931534 -101.375 87.625 C-104.18218937 86.30211693 -106.63956284 84.80801469 -109.18359375 83.03515625 C-115.0635743 79.25142545 -122.66689354 80.03186217 -129.375 80.625 C-147.27038495 85.15664787 -161.7670219 98.97158774 -174.375 111.625 C-167.59813149 112.27739009 -164.36584384 111.60398787 -159.09716797 107.30615234 C-158.40510254 106.71012207 -157.71303711 106.1140918 -157 105.5 C-155.52004666 104.29662491 -154.03567585 103.09866164 -152.546875 101.90625 C-151.83466797 101.33390625 -151.12246094 100.7615625 -150.38867188 100.171875 C-146.35593833 97.07398463 -141.96633656 94.77230877 -137.375 92.625 C-136.36179687 92.13966797 -136.36179687 92.13966797 -135.328125 91.64453125 C-126.74580949 87.7384774 -117.52334483 87.2495483 -108.625 90.375 C-105.42366888 91.64011527 -102.61531976 93.04269177 -99.75 94.9375 C-95.1094949 97.25775255 -92.29090527 97.10630676 -87.375 95.625 C-78.1186501 91.81291744 -70.27865774 86.73425776 -62.375 80.625 C-59.71354941 78.61803897 -57.04384184 76.62211794 -54.375 74.625 C-52.98939553 73.58749035 -51.6039754 72.54973446 -50.21875 71.51171875 C-49.22875 70.76994385 -49.22875 70.76994385 -48.21875 70.01318359 C-46.62861349 68.81594893 -45.04777145 67.60638777 -43.46875 66.39453125 C-30.98402718 56.97458225 -17.45759019 48.20225763 -1.375 48.625 C13.7684479 51.74796785 23.17978438 63.54829274 31.625 75.625 C41.44099847 90.08565152 41.44099847 90.08565152 56.60546875 97.53125 C58.0062994 97.73960662 59.40876221 97.93722562 60.8125 98.125 C73.72155911 100.15348655 84.70730958 104.34653972 95.625 111.625 C97.95699388 111.70405064 100.29332622 111.71298769 102.625 111.625 C90.57491714 98.36990886 74.8748505 92.17642483 57.625 89.625 C43.76768261 87.2671301 36.58464441 78.34172562 28.75 67.3125 C16.45486305 49.65062022 16.45486305 49.65062022 -2.375 40.625 C-22.34585886 38.00471001 -41.880432 55.50255941 -56.44140625 67.05859375 Z M-56.45996094 78.20361328 C-83.01170132 98.25893132 -83.01170132 98.25893132 -95.54296875 98.08984375 C-100.06501605 97.34760426 -103.7411264 95.25049938 -107.7109375 93.03515625 C-114.56090942 89.40929135 -123.00811544 89.4698886 -130.40234375 91.42578125 C-141.28968813 95.6784218 -151.92406859 102.57649389 -160.375 110.625 C-160.375 110.955 -160.375 111.285 -160.375 111.625 C-152.66463664 112.67869391 -148.47152386 110.9088103 -142.18359375 106.51171875 C-133.33605585 100.56824057 -124.02859823 97.5202945 -113.375 98.625 C-107.98579359 100.06960672 -103.08762104 102.18274358 -98.25 104.9375 C-93.72426584 107.2370127 -90.19457153 107.02942928 -85.375 105.625 C-71.61102331 100.43296737 -59.79946229 90.23975185 -48.1875 81.4375 C-17.32254176 58.08472797 -17.32254176 58.08472797 1.66357422 59.35107422 C13.58871991 61.01649785 21.96755955 70.43555131 28.7824707 79.44555664 C30.06918101 81.16777643 31.34878672 82.89498937 32.625 84.625 C34.22663354 86.79357792 35.83108528 88.95994855 37.4375 91.125 C38.46810547 92.53265625 38.46810547 92.53265625 39.51953125 93.96875 C47.22633638 103.69162103 54.27020169 107.4722107 66.25 109.1875 C67.95085949 109.4364997 69.65139724 109.68770972 71.3515625 109.94140625 C72.10002441 110.04912354 72.84848633 110.15684082 73.61962891 110.26782227 C75.625 110.625 75.625 110.625 78.625 111.625 C80.68645107 111.693991 82.75001401 111.70967727 84.8125 111.6875 C85.89917969 111.67847656 86.98585938 111.66945312 88.10546875 111.66015625 C88.93691406 111.64855469 89.76835937 111.63695312 90.625 111.625 C83.83786046 103.61904314 70.5649773 100.98468466 60.6875 99.75 C51.29706852 98.46541287 44.09968256 95.08387186 37.9921875 87.63305664 C36.25146236 85.29957577 34.55729482 82.938428 32.875 80.5625 C31.63919017 78.85758086 30.40090253 77.15445503 29.16015625 75.453125 C28.25740967 74.2146582 28.25740967 74.2146582 27.33642578 72.95117188 C19.9861292 62.96064037 12.55375795 52.89320315 -0.375 50.625 C-21.63217592 48.2834178 -40.67862078 66.25488431 -56.45996094 78.20361328 Z " fill="#050406" transform="translate(254.375,10.375)"/>
<path d="M0 0 C10.35724836 -0.0236712 20.71448981 -0.04118294 31.07176018 -0.05181217 C35.88639182 -0.05692587 40.70100436 -0.06379955 45.515625 -0.07543945 C72.69288372 -0.13941282 99.83379782 0.21422914 127 1 C127 1.99 127 2.98 127 4 C85.09 4 43.18 4 0 4 C0 2.68 0 1.36 0 0 Z " fill="#413D42" transform="translate(51,129)"/>
<path d="M0 0 C4.42000573 2.28216622 8.15285515 2.01791298 12.875 0.6875 C15.08428281 -0.29019291 17.16205195 -1.34935872 19.24609375 -2.5703125 C20.05240234 -2.93769531 20.05240234 -2.93769531 20.875 -3.3125 C21.865 -2.8175 21.865 -2.8175 22.875 -2.3125 C18.75784189 2.76532833 14.34486164 4.7480141 7.875 5.6875 C1.67377852 5.44493521 -3.576155 2.68902502 -8.9609375 -0.19140625 C-15.15339562 -3.39941253 -22.36779143 -3.23797039 -29.04296875 -1.59375 C-35.09017243 0.52149191 -40.64518066 3.38607798 -46.125 6.6875 C-45.06539062 6.67589844 -44.00578125 6.66429688 -42.9140625 6.65234375 C-41.52604342 6.64296524 -40.13802245 6.63386511 -38.75 6.625 C-38.05132812 6.61662109 -37.35265625 6.60824219 -36.6328125 6.59960938 C-31.3515625 6.57421875 -31.3515625 6.57421875 -29.125 7.6875 C-29.125 8.6775 -29.125 9.6675 -29.125 10.6875 C-40.015 10.6875 -50.905 10.6875 -62.125 10.6875 C-61.135 9.2025 -61.135 9.2025 -60.125 7.6875 C-58.4234375 7.56375 -58.4234375 7.56375 -56.6875 7.4375 C-51.54573656 6.99200425 -48.19480397 4.37185289 -44.00390625 1.5390625 C-29.15868165 -8.00861248 -15.36986518 -8.75228434 0 0 Z " fill="#0B090A" transform="translate(156.125,114.3125)"/>
<path d="M0 0 C41.91 0 83.82 0 127 0 C127 0.66 127 1.32 127 2 C85.09 2 43.18 2 0 2 C0 1.34 0 0.68 0 0 Z " fill="#050004" transform="translate(34,138)"/>
<path d="M0 0 C9.30126381 -0.04636675 18.60248775 -0.08189126 27.90384197 -0.10362434 C32.22296421 -0.1140558 36.5420073 -0.12820337 40.86108398 -0.15087891 C45.03023366 -0.17263001 49.19930725 -0.18457343 53.36850929 -0.18975449 C54.95809946 -0.19344617 56.54768554 -0.2006551 58.13724327 -0.21146011 C60.36591931 -0.22600526 62.59428208 -0.22797669 64.82299805 -0.22705078 C66.09096725 -0.231492 67.35893646 -0.23593323 68.66532898 -0.24050903 C71.88837412 -0.00805088 74.10715944 0.60985803 77 2 C77 2.33 77 2.66 77 3 C51.59 3 26.18 3 0 3 C0 2.01 0 1.02 0 0 Z M77 1 C79 2 79 2 79 2 Z " fill="#050104" transform="translate(226,122)"/>
<path d="M0 0 C0 0.99 0 1.98 0 3 C-7.88600617 3.13224402 -15.77203936 3.26273699 -23.65810871 3.39115143 C-27.32213545 3.45086705 -30.98615133 3.51112803 -34.65014648 3.57275391 C-50.43368848 3.83784338 -66.21354961 4.09228095 -82 4 C-82 3.01 -82 2.02 -82 1 C-74.40930889 0.86747571 -66.81858505 0.73697613 -59.22781849 0.60884857 C-55.70060878 0.54925231 -52.17341223 0.48903703 -48.64624023 0.42724609 C-32.43012856 0.14362997 -16.21920072 -0.082036 0 0 Z " fill="#1C191D" transform="translate(122,144)"/>
<path d="M0 0 C26.4 0 52.8 0 80 0 C80.495 1.485 80.495 1.485 81 3 C53.94 3 26.88 3 -1 3 C-0.67 2.01 -0.34 1.02 0 0 Z " fill="#080506" transform="translate(60,151)"/>
<path d="M0 0 C13.37726653 7.75808953 22.53099291 21.30794326 29.6875 34.6875 C28.6975 34.6875 27.7075 34.6875 26.6875 34.6875 C24.63671875 32.34375 24.63671875 32.34375 22.375 29.1875 C21.77896973 28.3675354 21.77896973 28.3675354 21.17089844 27.53100586 C20.00194522 25.92215709 18.84452257 24.30495007 17.6875 22.6875 C13.56655122 16.98131367 13.56655122 16.98131367 8.8125 11.8125 C8.11125 11.11125 7.41 10.41 6.6875 9.6875 C6.6875 9.0275 6.6875 8.3675 6.6875 7.6875 C6.006875 7.44 5.32625 7.1925 4.625 6.9375 C2.29645583 5.94663014 0.28801406 4.90695876 -1.875 3.625 C-9.90625335 -0.90170643 -17.71174241 0.45767396 -26.3125 2.6875 C-26 0.75 -26 0.75 -25.3125 -1.3125 C-17.41151309 -3.9461623 -7.54050137 -3.44369354 0 0 Z " fill="#0A090C" transform="translate(256.3125,20.3125)"/>
<path d="M0 0 C2.06692443 1.48089988 3.99369968 3.04503269 5.9140625 4.7109375 C6.73970703 5.41283203 6.73970703 5.41283203 7.58203125 6.12890625 C14.02037173 12.07787168 18.85525128 19.60298756 23.9140625 26.7109375 C22.5940625 27.0409375 21.2740625 27.3709375 19.9140625 27.7109375 C18.84478516 26.20853516 18.84478516 26.20853516 17.75390625 24.67578125 C6.57526485 8.96657223 6.57526485 8.96657223 -10.0859375 -0.2890625 C-17.01419422 -1.18379737 -23.53617797 -0.72618232 -30.0859375 1.7109375 C-29.9609375 -0.1640625 -29.9609375 -0.1640625 -29.0859375 -2.2890625 C-20.43613915 -6.96462917 -8.09485043 -5.00243566 0 0 Z " fill="#08070B" transform="translate(262.0859375,42.2890625)"/>
<path d="M0 0 C14.42235003 1.25411739 25.71282043 10.02250887 36.64501953 18.79541016 C41.67668536 22.81493546 46.90206862 26.45462183 52.2578125 30.02734375 C54.78509957 31.84540638 56.87814157 33.7309313 59 36 C51.20024192 36 44.83471267 29.9385968 39.375 24.75 C28.21596004 14.35625306 13.87084901 5.63509643 -1 2 C-0.67 1.34 -0.34 0.68 0 0 Z " fill="#020105" transform="translate(317,79)"/>
<path d="M0 0 C20.13 0 40.26 0 61 0 C61 0.99 61 1.98 61 3 C40.32114501 3.19862294 19.66818904 2.59011611 -1 2 C-0.67 1.34 -0.34 0.68 0 0 Z " fill="#030104" transform="translate(117,130)"/>
<path d="M0 0 C9.60017603 0.9600176 16.48806624 6.17850063 23 13 C26.16544199 16.88838144 29.09400488 20.91589875 32 25 C32.56460938 25.7321875 33.12921875 26.464375 33.7109375 27.21875 C35.125 29.0625 35.125 29.0625 37 32 C36.67 32.99 36.34 33.98 36 35 C32.4731636 31.61547454 29.49518209 28.14047641 26.625 24.1875 C18.54546545 13.31685351 11.99114152 6.40770873 -1 2 C-0.67 1.34 -0.34 0.68 0 0 Z " fill="#0B0A0F" transform="translate(252,49)"/>
<path d="M0 0 C0.66 0.33 1.32 0.66 2 1 C1.67 1.99 1.34 2.98 1 4 C2.4540625 3.7525 2.4540625 3.7525 3.9375 3.5 C14.875 1.9375 14.875 1.9375 19 4 C19 4.99 19 5.98 19 7 C8.11 7 -2.78 7 -14 7 C-13.34 6.01 -12.68 5.02 -12 4 C-9.99591328 3.74140817 -7.98992579 3.48845729 -5.9765625 3.31640625 C-3.38008793 2.90076506 -1.87800936 1.79975897 0 0 Z " fill="#161516" transform="translate(108,118)"/>
<path d="M0 0 C17.16 0 34.32 0 52 0 C52 0.66 52 1.32 52 2 C34.84 2 17.68 2 0 2 C0 1.34 0 0.68 0 0 Z " fill="#020003" transform="translate(42,161)"/>
<path d="M0 0 C10.66615517 6.66634698 17.07376725 17.77098033 24 28 C23.01 28.66 22.02 29.32 21 30 C20.26394531 28.91460937 19.52789062 27.82921875 18.76953125 26.7109375 C17.78401577 25.2655148 16.7983296 23.82020848 15.8125 22.375 C15.32974609 21.66214844 14.84699219 20.94929688 14.34960938 20.21484375 C8.76867517 12.01207179 8.76867517 12.01207179 1.6875 5.125 C0.800625 4.42375 -0.08625 3.7225 -1 3 C-0.67 2.01 -0.34 1.02 0 0 Z " fill="#07070B" transform="translate(262,34)"/>
<path d="M0 0 C10.56 0 21.12 0 32 0 C31.67 0.66 31.34 1.32 31 2 C21.02896559 4.00937195 10.13384365 3.09540229 0 3 C0 2.01 0 1.02 0 0 Z " fill="#030103" transform="translate(40,145)"/>
<path d="M0 0 C-0.66 0.66 -1.32 1.32 -2 2 C-2.66 1.67 -3.32 1.34 -4 1 C-4 1.66 -4 2.32 -4 3 C-4.65226562 3.19335938 -5.30453125 3.38671875 -5.9765625 3.5859375 C-10.6771398 4.98640448 -15.35840891 6.41208726 -20 8 C-19.73046875 6.10546875 -19.73046875 6.10546875 -19 4 C-13.48941491 0.59369561 -6.34006361 -0.18647246 0 0 Z " fill="#0E0C0D" transform="translate(131,67)"/>
<path d="M0 0 C0 0.66 0 1.32 0 2 C-5.28 2.66 -10.56 3.32 -16 4 C-15.67 2.68 -15.34 1.36 -15 0 C-4.21052632 -2.10526316 -4.21052632 -2.10526316 0 0 Z " fill="#161416" transform="translate(255,59)"/>
<path d="M0 0 C0.99 0 1.98 0 3 0 C5.04296875 2.40625 5.04296875 2.40625 7.1875 5.5 C8.26064453 7.03140625 8.26064453 7.03140625 9.35546875 8.59375 C9.89816406 9.3878125 10.44085938 10.181875 11 11 C9.68 11.33 8.36 11.66 7 12 C5.82767315 10.3790787 4.6622923 8.75313167 3.5 7.125 C2.8503125 6.22007813 2.200625 5.31515625 1.53125 4.3828125 C0 2 0 2 0 0 Z " fill="#242329" transform="translate(275,58)"/>
<path d="M0 0 C3.05081496 0.31723076 3.90666113 0.88901781 5.921875 3.28515625 C6.52515625 4.20167969 7.1284375 5.11820313 7.75 6.0625 C8.36359375 6.98160156 8.9771875 7.90070312 9.609375 8.84765625 C10.06828125 9.55792969 10.5271875 10.26820312 11 11 C10.01 11.66 9.02 12.32 8 13 C6.66388095 11.0226631 5.33100742 9.04327287 4 7.0625 C3.6184375 6.49853516 3.236875 5.93457031 2.84375 5.35351562 C0 1.11328125 0 1.11328125 0 0 Z " fill="#1A1920" transform="translate(275,51)"/>
<path d="M0 0 C7.59 0 15.18 0 23 0 C23 0.33 23 0.66 23 1 C19.37 1 15.74 1 12 1 C12 1.66 12 2.32 12 3 C7.45194365 3.17835515 4.1205746 2.99785435 0 1 C0 0.67 0 0.34 0 0 Z " fill="#2D2A30" transform="translate(298,122)"/>
<path d="M0 0 C0.99 0 1.98 0 3 0 C4.60546875 1.96875 4.60546875 1.96875 6.1875 4.5 C6.71730469 5.3353125 7.24710937 6.170625 7.79296875 7.03125 C8.19128906 7.6809375 8.58960938 8.330625 9 9 C8.34 9.66 7.68 10.32 7 11 C5.82750647 9.54634731 4.66216184 8.08692581 3.5 6.625 C2.52546875 5.40683594 2.52546875 5.40683594 1.53125 4.1640625 C0 2 0 2 0 0 Z " fill="#16151C" transform="translate(277,45)"/>
<path d="M0 0 C7.78571429 0.89835165 7.78571429 0.89835165 11 3 C11.33 3.66 11.66 4.32 12 5 C10.56163249 4.88541307 9.12429034 4.75790884 7.6875 4.625 C6.88699219 4.55539063 6.08648437 4.48578125 5.26171875 4.4140625 C3 4 3 4 0 2 C0 1.34 0 0.68 0 0 Z " fill="#1E1C20" transform="translate(304,116)"/>
<path d="M0 0 C4.20390632 1.50139512 5.89110738 4.17275043 8 8 C7.67 8.99 7.34 9.98 7 11 C4.35247996 8.42215154 2.05567935 6.08351902 0 3 C0 2.01 0 1.02 0 0 Z " fill="#16161B" transform="translate(281,73)"/>
<path d="M0 0 C3.35620271 1.38877354 5.07298728 2.91677965 7 6 C7 6.66 7 7.32 7 8 C6.01 8 5.02 8 4 8 C2.61328125 6.46875 2.61328125 6.46875 1.3125 4.5 C0.87550781 3.8503125 0.43851562 3.200625 -0.01171875 2.53125 C-0.50091797 1.77328125 -0.50091797 1.77328125 -1 1 C-0.67 0.67 -0.34 0.34 0 0 Z " fill="#101015" transform="translate(270,43)"/>
<path d="M0 0 C0 0.99 0 1.98 0 3 C-2.64 3 -5.28 3 -8 3 C-8.33 2.34 -8.66 1.68 -9 1 C-6.04335481 -0.4783226 -3.25770263 -0.06032783 0 0 Z " fill="#010103" transform="translate(433,122)"/>
<path d="M0 0 C-1 2 -1 2 -3.06640625 2.8515625 C-4.30197266 3.23441406 -4.30197266 3.23441406 -5.5625 3.625 C-6.38878906 3.88539062 -7.21507813 4.14578125 -8.06640625 4.4140625 C-8.70449219 4.60742188 -9.34257813 4.80078125 -10 5 C-10 3 -10 3 -8.6875 1.4375 C-5.67114441 -1.1319881 -3.6011295 -1.11759191 0 0 Z " fill="#0E0B0C" transform="translate(126,90)"/>
<path d="M0 0 C2.475 0.99 2.475 0.99 5 2 C5 2.99 5 3.98 5 5 C2.525 4.01 2.525 4.01 0 3 C0 2.01 0 1.02 0 0 Z " fill="#010006" transform="translate(256,31)"/>
</svg>
